<?xml version="1.0" standalone="no"?>
<!DOCTYPE svg PUBLIC "-//W3C//DTD SVG 20010904//EN"
 "http://www.w3.org/TR/2001/REC-SVG-20010904/DTD/svg10.dtd">
<svg version="1.0" xmlns="http://www.w3.org/2000/svg"
 width="700.000000pt" height="700.000000pt" viewBox="0 0 700.000000 700.000000"
 preserveAspectRatio="xMidYMid meet">
<metadata>
Created by potrace 1.14, written by Peter Selinger 2001-2017
</metadata>
<g transform="translate(0.000000,700.000000) scale(0.100000,-0.100000)"
fill="#000000" stroke="none">
<path d="M3224 5874 c-546 -74 -1054 -399 -1377 -882 -432 -645 -492 -1486
-157 -2190 92 -193 193 -344 367 -547 52 -60 111 -139 131 -175 l37 -65 0
-283 0 -284 33 -29 c44 -40 93 -40 133 1 l30 29 -3 308 -3 308 -33 70 c-38 80
-77 134 -213 295 -123 146 -214 282 -289 435 -317 641 -267 1417 129 2011 372
558 968 858 1614 813 236 -16 427 -69 652 -180 276 -136 496 -325 693 -597 79
-110 211 -374 257 -517 136 -417 134 -887 -5 -1289 -97 -281 -218 -483 -445
-740 -112 -127 -177 -227 -200 -307 -16 -57 -17 -92 -11 -324 4 -143 12 -272
17 -286 24 -62 112 -74 160 -23 l24 26 -3 268 c-4 337 -11 316 177 530 320
363 497 737 567 1195 20 131 22 444 5 580 -59 452 -233 844 -524 1180 -314
363 -744 600 -1218 669 -131 20 -403 19 -545 0z"/>
<path d="M2620 3610 c-214 -33 -405 -200 -471 -410 -24 -77 -29 -217 -10 -300
36 -156 165 -321 302 -387 237 -114 499 -73 679 107 223 223 229 576 14 808
-131 142 -327 211 -514 182z"/>
<path d="M4214 3610 c-226 -33 -413 -199 -480 -425 -21 -71 -23 -227 -5 -295
57 -207 223 -371 428 -424 78 -20 212 -20 288 -1 258 67 435 296 436 560 0
173 -50 296 -171 417 -138 138 -308 196 -496 168z"/>
<path d="M3439 2571 c-14 -11 -89 -149 -178 -329 -166 -334 -167 -337 -116
-388 29 -29 88 -33 123 -8 13 9 68 106 127 225 58 115 107 209 109 209 3 0 62
-94 131 -210 69 -115 136 -216 148 -225 25 -17 79 -20 109 -4 26 14 51 74 42
102 -12 42 -346 592 -375 620 -35 32 -85 36 -120 8z"/>
<path d="M2657 1739 c-42 -25 -47 -55 -47 -319 0 -198 3 -257 14 -279 35 -66
137 -66 172 0 19 37 21 514 2 554 -21 46 -96 70 -141 44z"/>
<path d="M4233 1726 l-28 -24 -3 -263 c-2 -186 0 -271 9 -291 26 -64 97 -77
151 -29 l33 29 3 258 c3 271 -1 301 -42 329 -32 23 -90 19 -123 -9z"/>
<path d="M3218 1634 c-15 -8 -32 -23 -38 -34 -6 -11 -10 -123 -10 -288 l0
-269 26 -27 c37 -37 97 -36 136 1 l28 27 0 269 c0 165 -4 276 -10 288 -12 22
-61 49 -87 49 -10 -1 -30 -7 -45 -16z"/>
<path d="M3748 1634 c-15 -8 -32 -23 -38 -34 -6 -11 -10 -123 -10 -288 l0
-269 26 -27 c37 -37 97 -36 136 1 l28 27 0 269 c0 165 -4 276 -10 288 -12 22
-61 49 -87 49 -10 -1 -30 -7 -45 -16z"/>
</g>
</svg>
